<?xml version="1.0" encoding="UTF-8" standalone="no"?>
<!-- Created with Inkscape (http://www.inkscape.org/) -->

<svg
   xmlns:dc="http://purl.org/dc/elements/1.1/"
   xmlns:cc="http://creativecommons.org/ns#"
   xmlns:rdf="http://www.w3.org/1999/02/22-rdf-syntax-ns#"
   xmlns:svg="http://www.w3.org/2000/svg"
   xmlns="http://www.w3.org/2000/svg"
   xmlns:sodipodi="http://sodipodi.sourceforge.net/DTD/sodipodi-0.dtd"
   xmlns:inkscape="http://www.inkscape.org/namespaces/inkscape"
   width="66.424332mm"
   height="22.560015mm"
   viewBox="0 0 66.424332 22.560015"
   version="1.1"
   id="svg5475"
   sodipodi:docname="rofi-logo-2row-black.svg"
   inkscape:version="0.92.3 (2405546, 2018-03-11)">
  <defs
     id="defs5469" />
  <sodipodi:namedview
     id="base"
     pagecolor="#ffffff"
     bordercolor="#666666"
     borderopacity="1.0"
     inkscape:pageopacity="0.0"
     inkscape:pageshadow="2"
     inkscape:zoom="1.0809568"
     inkscape:cx="153.53804"
     inkscape:cy="66.544266"
     inkscape:document-units="mm"
     inkscape:current-layer="flowRoot827-3-3"
     showgrid="false"
     units="px"
     fit-margin-top="0"
     fit-margin-right="0"
     fit-margin-bottom="0"
     fit-margin-left="0"
     inkscape:window-width="1916"
     inkscape:window-height="1040"
     inkscape:window-x="0"
     inkscape:window-y="1218"
     inkscape:window-maximized="0" />
  <metadata
     id="metadata5472">
    <rdf:RDF>
      <cc:Work
         rdf:about="">
        <dc:format>image/svg+xml</dc:format>
        <dc:type
           rdf:resource="http://purl.org/dc/dcmitype/StillImage" />
        <dc:title></dc:title>
      </cc:Work>
    </rdf:RDF>
  </metadata>
  <g
     inkscape:label="Layer 1"
     inkscape:groupmode="layer"
     id="layer1"
     transform="translate(-27.380272,-5.5381545)">
    <g
       aria-label="The Ro    Platform"
       transform="matrix(0.26458333,0,0,0.26458333,-323.28564,1.8787008)"
       style="font-style:normal;font-variant:normal;font-weight:normal;font-stretch:normal;font-size:12.5px;line-height:125%;font-family:'Latin Modern Sans';-inkscape-font-specification:'Latin Modern Sans';letter-spacing:0px;word-spacing:0px;fill:#000000;fill-opacity:1;stroke:none;stroke-width:1px;stroke-linecap:butt;stroke-linejoin:miter;stroke-opacity:1"
       id="flowRoot827-3" />
    <g
       aria-label="FI"
       transform="matrix(0.26458333,0,0,0.26458333,-365.7342,-9.3185511)"
       style="font-style:normal;font-variant:normal;font-weight:normal;font-stretch:normal;font-size:12.5px;line-height:125%;font-family:'Latin Modern Sans';-inkscape-font-specification:'Latin Modern Sans';letter-spacing:0px;word-spacing:0px;fill:#000000;fill-opacity:1;stroke:none;stroke-width:1px;stroke-linecap:butt;stroke-linejoin:miter;stroke-opacity:1"
       id="flowRoot827-3-3">
      <path
         id="path2790"
         style="font-style:normal;font-variant:normal;font-weight:normal;font-stretch:normal;font-size:226.66667175px;line-height:1.25em;font-family:ArtegraSansSC-Regular;-inkscape-font-specification:ArtegraSansSC-Regular;text-align:center;text-anchor:middle;stroke-width:1px"
         d="m 1701.0429,95.184439 17.0555,-38.70236 h 4.3722 l -17.0555,38.70236 z m -7.5482,-21.89959 h 13.2789 l -1.6877,3.88643 h -9.3773 l 4.7361,9.37442 -2.0447,4.21795 -18.9483,-34.45494 h 34.0386 l -1.6877,3.88643 h -25.7647 z m -18.3954,10.71923 c 0.4318,-1.52938 0.6477,-3.220697 0.6477,-5.07395 0,-1.853247 -0.2159,-3.544563 -0.6477,-5.07395 -0.4318,-1.52938 -1.0885,-2.88783 -1.9702,-4.07535 -0.8817,-1.205513 -2.0602,-2.13214 -3.5356,-2.77988 -1.4754,-0.64774 -3.1937,-0.97161 -5.1549,-0.97161 -1.9612,0 -3.6795,0.32387 -5.1549,0.97161 -1.4754,0.64774 -2.6539,1.574367 -3.5356,2.77988 -0.8816,1.18752 -1.5383,2.54597 -1.9702,4.07535 -0.4318,1.529387 -0.6477,3.220703 -0.6477,5.07395 0,1.853253 0.2159,3.54457 0.6477,5.07395 0.4319,1.529387 1.0886,2.88784 1.9702,4.07536 0.8817,1.205507 2.0602,2.13213 3.5356,2.77987 1.4754,0.64774 3.1937,0.97161 5.1549,0.97161 1.9612,0 3.6795,-0.32387 5.1549,-0.97161 1.4754,-0.64774 2.6539,-1.574363 3.5356,-2.77987 0.8817,-1.18752 1.5384,-2.545973 1.9702,-4.07536 z m -25.2348,1.51139 c -0.6657,-1.997193 -0.9986,-4.192307 -0.9986,-6.58534 0,-2.393033 0.3329,-4.588147 0.9986,-6.58534 0.6657,-1.997193 1.6373,-3.73349 2.9148,-5.20889 1.2775,-1.457413 2.9058,-2.599953 4.8851,-3.42762 1.9791,-0.827667 4.2372,-1.2415 6.7742,-1.2415 2.537,0 4.7951,0.413833 6.7743,1.2415 1.9792,0.827667 3.6075,1.970207 4.885,3.42762 1.2775,1.4754 2.2491,3.211697 2.9148,5.20889 0.6657,1.997193 0.9986,4.192307 0.9986,6.58534 0,2.393033 -0.3329,4.588147 -0.9986,6.58534 -0.6657,1.997193 -1.6373,3.733493 -2.9148,5.2089 -1.2775,1.457407 -2.9058,2.599943 -4.885,3.42761 -1.9792,0.827667 -4.2373,1.2415 -6.7743,1.2415 -2.537,0 -4.7951,-0.413833 -6.7742,-1.2415 -1.9793,-0.827667 -3.6076,-1.970203 -4.8851,-3.42761 -1.2775,-1.475407 -2.2491,-3.211707 -2.9148,-5.2089 z m -18.4875,-25.47771 h -12.523 v 14.68207 h 12.523 c 2.501,0 4.3812,-0.66573 5.6407,-1.99719 1.2595,-1.33146 1.8892,-3.11274 1.8892,-5.34384 0,-2.2311 -0.6297,-4.01238 -1.8892,-5.34384 -1.2595,-1.331467 -3.1397,-1.9972 -5.6407,-1.9972 z m -12.523,34.81594 h -4.3722 v -38.70237 h 16.8952 c 3.6885,0 6.6033,1.01659 8.7444,3.04977 2.1411,2.03318 3.2117,4.63313 3.2117,7.79985 0.018,3.16672 -0.8726,5.730683 -2.6719,7.69189 -1.7993,1.961213 -4.0843,3.175723 -6.8552,3.64353 l 9.743,16.51733 h -4.858 l -9.5811,-16.24744 h -10.2559 z m -44.532,-18.40656 h 15.8156 v 3.56256 h -15.8156 v 11.28144 h 16.8412 v 3.56256 h -20.9975 v -31.84713 h 20.7816 v 3.56255 h -16.6253 z m -32.9267,0 h 17.0031 v -13.44057 h 4.1564 v 31.84713 h -4.1564 v -14.844 h -17.0031 v 14.844 h -4.1563 v -31.84713 h 4.1563 z m -41.2393,-20.29581 h 31.3613 v 3.88643 h -13.4946 v 34.81594 h -4.3722 v -34.81594 h -13.4945 z"
         inkscape:connector-curvature="0"
         sodipodi:nodetypes="cccccccccccccccccsccsssccsccsssccsssccsscssscssccssccssscscccssccccccccccccccccccccccccccccccccccccccccccc" />
      <path
         id="path2790-3"
         style="font-style:normal;font-variant:normal;font-weight:normal;font-stretch:normal;font-size:226.66667175px;line-height:1.25em;font-family:ArtegraSansSC-Regular;-inkscape-font-specification:ArtegraSansSC-Regular;text-align:center;letter-spacing:0px;word-spacing:0px;text-anchor:middle;fill:#000000;fill-opacity:1;stroke:none;stroke-width:1px;stroke-linecap:butt;stroke-linejoin:miter;stroke-opacity:1"
         d="m 1736.8396,109.03062 v 31.84713 h -4.1564 v -22.99471 l -10.1478,22.99471 h -4.2103 l -10.1479,-22.99471 v 22.99471 h -4.1564 v -31.84713 h 4.6152 l 11.7942,26.7192 11.7942,-26.7192 z m -50.4966,3.56255 h -8.9334 v 11.41639 h 8.9334 c 4.2643,0.018 6.3964,-1.88023 6.3964,-5.6947 0,-3.81446 -2.1321,-5.72169 -6.3964,-5.72169 z m -8.9334,14.97896 v 13.30562 h -4.1563 v -31.84713 h 13.0897 c 3.6165,0 6.2794,0.80967 7.9887,2.42901 1.7093,1.61935 2.564,3.79647 2.564,6.53136 0,5.14593 -2.564,8.22269 -7.6919,9.23028 l 7.8269,13.65648 h -4.6152 l -7.5839,-13.30562 z m -16.1395,2.456 c 0.4319,-1.52938 0.6478,-3.2207 0.6478,-5.07395 0,-1.85325 -0.2159,-3.54456 -0.6478,-5.07395 -0.4318,-1.52938 -1.0885,-2.88783 -1.9702,-4.07535 -0.8817,-1.20551 -2.0602,-2.13214 -3.5356,-2.77988 -1.4754,-0.64774 -3.1937,-0.97161 -5.1549,-0.97161 -1.9612,0 -3.6795,0.32387 -5.1549,0.97161 -1.4754,0.64774 -2.6539,1.57437 -3.5356,2.77988 -0.8816,1.18752 -1.5383,2.54597 -1.9702,4.07535 -0.4318,1.52939 -0.6477,3.2207 -0.6477,5.07395 0,1.85325 0.2159,3.54457 0.6477,5.07395 0.4319,1.52939 1.0886,2.88784 1.9702,4.07536 0.8817,1.20551 2.0602,2.13213 3.5356,2.77987 1.4754,0.64774 3.1937,0.97161 5.1549,0.97161 1.9612,0 3.6795,-0.32387 5.1549,-0.97161 1.4754,-0.64774 2.6539,-1.57436 3.5356,-2.77987 0.8817,-1.18752 1.5384,-2.54597 1.9702,-4.07536 z m -25.2348,1.51139 c -0.6657,-1.99719 -0.9986,-4.19231 -0.9986,-6.58534 0,-2.39303 0.3329,-4.58815 0.9986,-6.58534 0.6657,-1.99719 1.6373,-3.73349 2.9148,-5.20889 1.2775,-1.45741 2.9058,-2.59995 4.8851,-3.42762 1.9792,-0.82767 4.2373,-1.2415 6.7742,-1.2415 2.537,0 4.7951,0.41383 6.7743,1.2415 1.9792,0.82767 3.6075,1.97021 4.885,3.42762 1.2775,1.4754 2.2491,3.2117 2.9148,5.20889 0.6657,1.99719 0.9986,4.19231 0.9986,6.58534 0,2.39303 -0.3329,4.58815 -0.9986,6.58534 -0.6657,1.99719 -1.6373,3.73349 -2.9148,5.2089 -1.2775,1.45741 -2.9058,2.59994 -4.885,3.42761 -1.9792,0.82767 -4.2373,1.2415 -6.7743,1.2415 -2.5369,0 -4.795,-0.41383 -6.7742,-1.2415 -1.9793,-0.82767 -3.6076,-1.9702 -4.8851,-3.42761 -1.2775,-1.47541 -2.2491,-3.21171 -2.9148,-5.2089 z m -23.2916,-9.06833 h 15.8156 v 3.56256 h -15.8156 v 14.844 h -4.1563 v -31.84713 h 20.7816 v 3.56255 h -16.6253 z m -25.3697,18.40656 v -28.28458 h -10.5258 v -3.56255 h 25.2078 v 3.56255 h -10.5257 v 28.28458 z m -25.3968,-26.44932 -5.9916,14.19627 h 11.9832 z m 11.1465,26.44932 -3.6435,-8.69049 h -15.006 l -3.6435,8.69049 h -4.4802 l 13.4676,-31.84713 h 4.3182 l 13.4676,31.84713 z m -46.3133,-31.84713 v 28.28457 h 14.979 v 3.56256 h -19.1353 v -31.84713 z m -36.6512,31.84713 h -4.3722 v -38.70237 h 16.1125 c 4.0483,0 7.206,1.06157 9.4731,3.18472 2.2671,2.12314 3.4007,5.05595 3.4007,8.79844 0,3.74249 -1.1336,6.67531 -3.4007,8.79845 -2.2671,2.12314 -5.4248,3.18471 -9.4731,3.18471 h -11.7403 z m 11.7403,-34.81594 h -11.7403 v 16.19346 h 11.7403 c 2.7889,0 4.894,-0.71971 6.3154,-2.15913 1.4215,-1.43941 2.1322,-3.41861 2.1322,-5.9376 0,-2.51898 -0.7107,-4.49818 -2.1322,-5.9376 -1.4214,-1.43942 -3.5265,-2.15913 -6.3154,-2.15913 z"
         inkscape:connector-curvature="0"
         sodipodi:nodetypes="ccccccccccccccscccssccccscsccccccsccsssccsccsssccsssccsscssscssccscccccccccccccccccccccccccccccccccccccccccccscscsccsccscscs" />
    </g>
  </g>
</svg>
