M48
; DRILL file {KiCad 5.1.6-c6e7f7d~87~ubuntu20.04.1} date Sun Sep 27 16:21:37 2020
; FORMAT={-:-/ absolute / inch / decimal}
; #@! TF.CreationDate,2020-09-27T16:21:37+02:00
; #@! TF.GenerationSoftware,Kicad,Pcbnew,5.1.6-c6e7f7d~87~ubuntu20.04.1
; #@! TF.FileFunction,Plated,1,2,PTH
FMAT,2
INCH
T1C0.0276
T2C0.0315
%
G90
G05
T1
X6.6663Y-1.7884
X6.6663Y-1.8384
X6.6663Y-1.8884
X6.6663Y-1.9384
X6.6663Y-1.9884
X6.6663Y-2.0384
X6.6663Y-2.0884
X6.6663Y-2.1384
X6.6663Y-2.1884
X6.253Y-1.7884
X6.253Y-1.8384
X6.253Y-1.8884
X6.253Y-1.9384
X6.253Y-1.9884
X6.253Y-2.0384
X6.253Y-2.0884
X6.253Y-2.1384
X6.253Y-2.1884
T2
X5.7185Y-1.9291
X5.7898Y-1.9267
X5.9252Y-1.7913
X5.9659Y-1.8444
X5.9744Y-1.9291
X5.9744Y-2.0079
X5.9744Y-2.0866
X5.9744Y-2.1654
X5.9744Y-2.2441
X6.0531Y-1.9291
X6.0531Y-2.0079
X6.0531Y-2.0866
X6.0531Y-2.1654
X6.0531Y-2.2441
T0
M30
