# Blender v2.82 (sub 7) OBJ File: ''
# www.blender.org
mtllib body.mtl
o Body1:1
v 42.443161 30.000000 6.897687
v 24.000000 29.999996 24.000004
v 43.000000 30.000000 0.000002
v 24.000000 30.000004 -23.999996
v 42.443161 30.000000 -6.897683
v 40.787067 30.000000 -13.616722
v 38.074608 30.000000 -19.983091
v 34.376038 30.000004 -25.831913
v 29.787148 30.000004 -31.011702
v 24.426785 30.000004 -35.388306
v 18.433781 30.000004 -38.848370
v 11.963351 30.000004 -41.302280
v 5.183077 30.000004 -42.686481
v -1.731435 30.000004 -42.965126
v -24.000000 30.000004 -23.999996
v -8.601105 30.000004 -42.130997
v -15.248010 30.000004 -40.205696
v -21.500000 30.000004 -37.239094
v -27.195150 30.000004 -33.308014
v -32.185963 30.000004 -28.514271
v -36.343174 30.000004 -22.982027
v -39.559116 30.000000 -16.854561
v -41.750500 30.000000 -10.290572
v -42.860565 30.000000 -3.460060
v -42.860565 30.000000 3.460064
v -24.000000 29.999996 24.000004
v -41.750500 30.000000 10.290576
v -39.559116 30.000000 16.854568
v -36.343174 29.999996 22.982035
v -32.185963 29.999996 28.514278
v -27.195150 29.999996 33.308014
v -21.500000 29.999996 37.239094
v -15.248010 29.999996 40.205696
v -8.601105 29.999996 42.130997
v -1.731435 29.999996 42.965126
v 5.183077 29.999996 42.686481
v 11.963351 29.999996 41.302280
v 18.433781 29.999996 38.848370
v 24.426785 29.999996 35.388306
v 29.787148 29.999996 31.011709
v 34.376038 29.999996 25.831921
v 38.074608 30.000000 19.983099
v 40.787067 30.000000 13.616726
v 42.443161 47.985039 -6.897681
v 43.000000 47.985039 0.000004
v 42.443161 47.985039 6.897689
v 40.787067 47.985039 13.616728
v 38.074608 47.985039 19.983099
v 34.376038 47.985039 25.831921
v 29.787148 47.985039 31.011709
v 24.426785 47.985039 35.388313
v 18.433781 47.985039 38.848377
v 11.963351 47.985039 41.302288
v 5.183077 47.985039 42.686489
v -1.731435 47.985039 42.965134
v -8.601105 47.985039 42.131004
v -15.248010 47.985039 40.205704
v -21.500000 47.985039 37.239101
v -27.195150 47.985039 33.308022
v -32.185963 47.985039 28.514278
v -36.343174 47.985039 22.982035
v -39.559116 47.985039 16.854568
v -41.750500 47.985039 10.290578
v -42.860565 47.985039 3.460066
v -42.860565 47.985039 -3.460058
v -41.750500 47.985039 -10.290570
v -39.559116 47.985039 -16.854561
v -36.343174 47.985039 -22.982027
v -32.185963 47.985039 -28.514271
v -27.195150 47.985039 -33.308006
v -21.500000 47.985039 -37.239086
v -15.248010 47.985039 -40.205688
v -8.601105 47.985039 -42.130989
v -1.731435 47.985039 -42.965118
v 5.183077 47.985039 -42.686474
v 11.963351 47.985039 -41.302273
v 18.433781 47.985039 -38.848362
v 24.426785 47.985039 -35.388298
v 29.787148 47.985039 -31.011702
v 34.376038 47.985039 -25.831913
v 38.074608 47.985039 -19.983091
v 40.787067 47.985039 -13.616720
v 24.000000 -0.000002 24.000000
v 24.000000 0.000002 -24.000000
v 24.000000 -4.989879 -23.475542
v 24.000000 -9.761677 -21.925091
v 24.000000 -14.106844 -19.416409
v 24.000000 -17.835476 -16.059135
v 24.000000 -20.784611 -12.000002
v 24.000000 -22.825356 -7.416410
v 24.000000 -23.868525 -2.508685
v 24.000000 -23.868525 2.508681
v 24.000000 -22.825356 7.416406
v 24.000000 -20.784611 11.999998
v 24.000000 -17.835476 16.059135
v 24.000000 -14.106848 19.416409
v 24.000000 -9.761681 21.925091
v 24.000000 -4.989883 23.475542
v -24.000000 -0.000002 24.000000
v -24.000000 0.000002 -24.000000
v -24.000000 -4.989879 -23.475542
v -24.000000 -9.761677 -21.925091
v -24.000000 -14.106844 -19.416409
v -24.000000 -17.835476 -16.059135
v -24.000000 -20.784611 -12.000002
v -24.000000 -22.825356 -7.416410
v -24.000000 -23.868525 -2.508685
v -24.000000 -23.868525 2.508681
v -24.000000 -22.825356 7.416406
v -24.000000 -20.784611 11.999998
v -24.000000 -17.835476 16.059135
v -24.000000 -14.106848 19.416409
v -24.000000 -9.761681 21.925091
v -24.000000 -4.989883 23.475542
vt 4.244316 0.689769
vt 2.400000 2.400000
vt 4.300000 -0.000000
vt 2.400000 -2.400000
vt 4.244316 -0.689769
vt 4.078707 -1.361672
vt 3.807461 -1.998310
vt 3.437604 -2.583192
vt 2.978715 -3.101171
vt 2.442678 -3.538831
vt 1.843378 -3.884837
vt 1.196335 -4.130228
vt 0.518308 -4.268648
vt -0.173144 -4.296513
vt -2.400000 -2.400000
vt -0.860110 -4.213100
vt -1.524801 -4.020570
vt -2.150000 -3.723909
vt -2.719515 -3.330801
vt -3.218596 -2.851427
vt -3.634317 -2.298203
vt -3.955912 -1.685456
vt -4.175050 -1.029057
vt -4.286056 -0.346006
vt -4.286056 0.346006
vt -2.400000 2.400000
vt -4.175050 1.029057
vt -3.955912 1.685456
vt -3.634317 2.298203
vt -3.218596 2.851427
vt -2.719515 3.330801
vt -2.150000 3.723909
vt -1.524801 4.020570
vt -0.860110 4.213100
vt -0.173144 4.296513
vt 0.518308 4.268648
vt 1.196335 4.130228
vt 1.843378 3.884837
vt 2.442678 3.538831
vt 2.978715 3.101171
vt 3.437604 2.583192
vt 3.807461 1.998310
vt 4.078707 1.361672
vt -2.000000 12.816087
vt -0.000000 12.816087
vt -2.000000 13.508848
vt -0.000000 13.508848
vt -2.000000 -13.508848
vt -0.000000 -13.508848
vt -2.000000 -12.816087
vt -0.000000 -12.816087
vt -2.000000 -12.123325
vt -0.000000 -12.123325
vt -2.000000 -11.430564
vt -0.000000 -11.430564
vt -2.000000 -10.737803
vt -0.000000 -10.737803
vt -2.000000 -10.045041
vt -0.000000 -10.045041
vt -2.000000 -9.352280
vt -0.000000 -9.352280
vt -2.000000 -8.659518
vt -0.000000 -8.659518
vt -2.000000 -7.966757
vt -0.000000 -7.966757
vt -2.000000 -7.273995
vt -0.000000 -7.273995
vt -2.000000 -6.581234
vt -0.000000 -6.581234
vt -2.000000 -5.888472
vt -0.000000 -5.888472
vt -2.000000 -5.195711
vt -0.000000 -5.195711
vt -2.000000 -4.502949
vt -0.000000 -4.502949
vt -2.000000 -3.810188
vt -0.000000 -3.810188
vt -2.000000 -3.117427
vt -0.000000 -3.117427
vt -2.000000 -2.424665
vt -0.000000 -2.424665
vt -2.000000 -1.731904
vt -0.000000 -1.731904
vt -2.000000 -1.039142
vt -0.000000 -1.039142
vt -2.000000 -0.346381
vt -0.000000 -0.346381
vt -2.000000 0.346381
vt 0.000000 0.346381
vt -2.000000 1.039142
vt 0.000000 1.039142
vt -2.000000 1.731904
vt 0.000000 1.731904
vt -2.000000 2.424665
vt 0.000000 2.424665
vt -2.000000 3.117427
vt 0.000000 3.117427
vt -2.000000 3.810188
vt 0.000000 3.810188
vt -2.000000 4.502949
vt 0.000000 4.502949
vt -2.000000 5.195711
vt 0.000000 5.195711
vt -2.000000 5.888472
vt 0.000000 5.888472
vt -2.000000 6.581234
vt 0.000000 6.581234
vt -2.000000 7.273995
vt -0.000000 7.273995
vt -2.000000 7.966757
vt -0.000000 7.966757
vt -2.000000 8.659518
vt -0.000000 8.659518
vt -2.000000 9.352280
vt -0.000000 9.352280
vt -2.000000 10.045041
vt -0.000000 10.045041
vt -2.000000 10.737803
vt -0.000000 10.737803
vt -2.000000 11.430564
vt -0.000000 11.430564
vt -2.000000 12.123325
vt -0.000000 12.123325
vt 1.700000 2.400000
vt -1.300000 2.400000
vt 1.700000 -2.400000
vt -1.300000 -2.400000
vt -1.798988 -2.347554
vt -2.276168 -2.192509
vt -2.710685 -1.941641
vt -3.083548 -1.605913
vt -3.378461 -1.200000
vt -3.582536 -0.741641
vt -3.686853 -0.250868
vt -3.686853 0.250868
vt -3.582536 0.741641
vt -3.378461 1.200000
vt -3.083548 1.605913
vt -2.710685 1.941641
vt -2.276168 2.192509
vt -1.798988 2.347554
vt 2.000000 -2.400000
vt 5.000000 -2.400000
vt 2.000000 2.400000
vt 5.000000 2.400000
vt -1.700000 2.400000
vt -1.700000 -2.400000
vt 1.300000 2.400000
vt 1.300000 -2.400000
vt 1.798988 -2.347554
vt 2.276168 -2.192509
vt 2.710685 -1.941641
vt 3.083548 -1.605913
vt 3.378461 -1.200000
vt 3.582536 -0.741641
vt 3.686853 -0.250868
vt 3.686853 0.250868
vt 3.582536 0.741641
vt 3.378461 1.200000
vt 3.083548 1.605913
vt 2.710685 1.941641
vt 2.276168 2.192509
vt 1.798988 2.347554
vt 2.400000 4.300000
vt 1.710231 4.244316
vt 3.089769 4.244316
vt 3.761672 4.078707
vt 1.038328 4.078707
vt 4.398310 3.807461
vt 0.401690 3.807461
vt 4.983192 3.437604
vt -0.183192 3.437604
vt 5.501171 2.978715
vt -0.701171 2.978715
vt 5.938831 2.442678
vt -1.138831 2.442678
vt 6.284837 1.843378
vt -1.484837 1.843378
vt 6.530228 1.196335
vt -1.730228 1.196335
vt 6.668648 0.518308
vt -1.868648 0.518308
vt 6.696513 -0.173144
vt -1.896513 -0.173144
vt 6.613100 -0.860110
vt -1.813100 -0.860110
vt 6.420570 -1.524801
vt -1.620570 -1.524801
vt 6.123909 -2.150000
vt -1.323909 -2.150000
vt 5.730801 -2.719515
vt -0.930801 -2.719515
vt 5.251427 -3.218596
vt -0.451427 -3.218596
vt 4.698203 -3.634317
vt 0.101797 -3.634317
vt 4.085456 -3.955912
vt 0.714544 -3.955912
vt 3.429057 -4.175050
vt 1.370943 -4.175050
vt 2.746006 -4.286056
vt 2.053994 -4.286056
vt 3.000000 2.400000
vt 0.000000 2.400000
vt 3.000000 -2.400000
vt 0.000000 -2.400000
vt -2.400000 -3.769911
vt -2.400000 -4.272566
vt 2.400000 -3.769911
vt 2.400000 -4.272566
vt -2.400000 -4.775221
vt 2.400000 -4.775221
vt -2.400000 -5.277876
vt 2.400000 -5.277876
vt -2.400000 -5.780530
vt 2.400000 -5.780530
vt -2.400000 -6.283185
vt 2.400000 -6.283185
vt -2.400000 -6.785840
vt 2.400000 -6.785840
vt -2.400000 -7.288495
vt 2.400000 -7.288495
vt -2.400000 -7.791150
vt 2.400000 -7.791150
vt 2.400000 7.288495
vt -2.400000 7.288495
vt -2.400000 6.785840
vt 2.400000 6.785840
vt -2.400000 6.283185
vt 2.400000 6.283185
vt -2.400000 5.780530
vt 2.400000 5.780530
vt -2.400000 5.277876
vt 2.400000 5.277876
vt -2.400000 4.775221
vt 2.400000 4.775221
vt -2.400000 4.272566
vt 2.400000 4.272566
vt -2.400000 3.769911
vt 2.400000 3.769911
vn 0.0000 -1.0000 0.0000
vn 0.9871 0.0000 -0.1604
vn 1.0000 -0.0000 0.0000
vn 0.9871 -0.0000 0.1604
vn 0.9485 0.0000 0.3167
vn 0.8855 0.0000 0.4647
vn 0.7994 0.0000 0.6007
vn 0.6927 0.0000 0.7212
vn 0.5681 -0.0000 0.8230
vn 0.4287 -0.0000 0.9035
vn 0.2782 -0.0000 0.9605
vn 0.1205 -0.0000 0.9927
vn -0.0403 -0.0000 0.9992
vn -0.2000 -0.0000 0.9798
vn -0.3546 -0.0000 0.9350
vn -0.5000 -0.0000 0.8660
vn -0.6324 -0.0000 0.7746
vn -0.7485 -0.0000 0.6631
vn -0.8452 0.0000 0.5345
vn -0.9200 0.0000 0.3920
vn -0.9709 -0.0000 0.2393
vn -0.9968 -0.0000 0.0805
vn -0.9968 -0.0000 -0.0805
vn -0.9709 0.0000 -0.2393
vn -0.9200 0.0000 -0.3920
vn -0.8452 0.0000 -0.5345
vn -0.7485 0.0000 -0.6631
vn -0.6324 0.0000 -0.7746
vn -0.5000 0.0000 -0.8660
vn -0.3546 0.0000 -0.9350
vn -0.2000 0.0000 -0.9798
vn -0.0403 0.0000 -0.9992
vn 0.1205 0.0000 -0.9927
vn 0.2782 0.0000 -0.9605
vn 0.4287 0.0000 -0.9035
vn 0.5681 0.0000 -0.8230
vn 0.6927 0.0000 -0.7212
vn 0.7994 0.0000 -0.6007
vn 0.8855 0.0000 -0.4647
vn 0.9485 0.0000 -0.3167
vn 0.0000 -0.0000 1.0000
vn -1.0000 0.0000 0.0000
vn 0.0000 1.0000 0.0000
vn 0.0000 0.0000 -1.0000
vn 0.0000 -0.2079 -0.9781
vn 0.0000 -0.4067 -0.9135
vn 0.0000 -0.5878 -0.8090
vn 0.0000 -0.7431 -0.6691
vn 0.0000 -0.8660 -0.5000
vn 0.0000 -0.9511 -0.3090
vn 0.0000 -0.9945 -0.1045
vn 0.0000 -0.9945 0.1045
vn 0.0000 -0.9511 0.3090
vn 0.0000 -0.8660 0.5000
vn 0.0000 -0.7431 0.6691
vn 0.0000 -0.5878 0.8090
vn 0.0000 -0.4067 0.9135
vn 0.0000 -0.2079 0.9781
usemtl Steel_-_Satin
s 1
f 1/1/1 2/2/1 3/3/1
f 3/3/1 2/2/1 4/4/1
f 3/3/1 4/4/1 5/5/1
f 5/5/1 4/4/1 6/6/1
f 6/6/1 4/4/1 7/7/1
f 7/7/1 4/4/1 8/8/1
f 8/8/1 4/4/1 9/9/1
f 9/9/1 4/4/1 10/10/1
f 10/10/1 4/4/1 11/11/1
f 11/11/1 4/4/1 12/12/1
f 12/12/1 4/4/1 13/13/1
f 13/13/1 4/4/1 14/14/1
f 14/14/1 4/4/1 15/15/1
f 14/14/1 15/15/1 16/16/1
f 16/16/1 15/15/1 17/17/1
f 17/17/1 15/15/1 18/18/1
f 18/18/1 15/15/1 19/19/1
f 19/19/1 15/15/1 20/20/1
f 20/20/1 15/15/1 21/21/1
f 21/21/1 15/15/1 22/22/1
f 22/22/1 15/15/1 23/23/1
f 23/23/1 15/15/1 24/24/1
f 24/24/1 15/15/1 25/25/1
f 25/25/1 15/15/1 26/26/1
f 25/25/1 26/26/1 27/27/1
f 27/27/1 26/26/1 28/28/1
f 28/28/1 26/26/1 29/29/1
f 29/29/1 26/26/1 30/30/1
f 30/30/1 26/26/1 31/31/1
f 31/31/1 26/26/1 32/32/1
f 32/32/1 26/26/1 33/33/1
f 33/33/1 26/26/1 34/34/1
f 34/34/1 26/26/1 35/35/1
f 35/35/1 26/26/1 2/2/1
f 35/35/1 2/2/1 36/36/1
f 36/36/1 2/2/1 37/37/1
f 37/37/1 2/2/1 38/38/1
f 38/38/1 2/2/1 39/39/1
f 39/39/1 2/2/1 40/40/1
f 40/40/1 2/2/1 41/41/1
f 41/41/1 2/2/1 42/42/1
f 42/42/1 2/2/1 43/43/1
f 43/43/1 2/2/1 1/1/1
f 5/44/2 44/45/2 3/46/3
f 3/46/3 44/45/2 45/47/3
f 3/48/3 45/49/3 1/50/4
f 1/50/4 45/49/3 46/51/4
f 1/50/4 46/51/4 43/52/5
f 43/52/5 46/51/4 47/53/5
f 43/52/5 47/53/5 42/54/6
f 42/54/6 47/53/5 48/55/6
f 42/54/6 48/55/6 41/56/7
f 41/56/7 48/55/6 49/57/7
f 41/56/7 49/57/7 40/58/8
f 40/58/8 49/57/7 50/59/8
f 40/58/8 50/59/8 39/60/9
f 39/60/9 50/59/8 51/61/9
f 39/60/9 51/61/9 38/62/10
f 38/62/10 51/61/9 52/63/10
f 38/62/10 52/63/10 37/64/11
f 37/64/11 52/63/10 53/65/11
f 37/64/11 53/65/11 36/66/12
f 36/66/12 53/65/11 54/67/12
f 36/66/12 54/67/12 35/68/13
f 35/68/13 54/67/12 55/69/13
f 35/68/13 55/69/13 34/70/14
f 34/70/14 55/69/13 56/71/14
f 34/70/14 56/71/14 33/72/15
f 33/72/15 56/71/14 57/73/15
f 33/72/15 57/73/15 32/74/16
f 32/74/16 57/73/15 58/75/16
f 32/74/16 58/75/16 31/76/17
f 31/76/17 58/75/16 59/77/17
f 31/76/17 59/77/17 30/78/18
f 30/78/18 59/77/17 60/79/18
f 30/78/18 60/79/18 29/80/19
f 29/80/19 60/79/18 61/81/19
f 29/80/19 61/81/19 28/82/20
f 28/82/20 61/81/19 62/83/20
f 28/82/20 62/83/20 27/84/21
f 27/84/21 62/83/20 63/85/21
f 27/84/21 63/85/21 25/86/22
f 25/86/22 63/85/21 64/87/22
f 25/86/22 64/87/22 24/88/23
f 24/88/23 64/87/22 65/89/23
f 24/88/23 65/89/23 23/90/24
f 23/90/24 65/89/23 66/91/24
f 23/90/24 66/91/24 22/92/25
f 22/92/25 66/91/24 67/93/25
f 22/92/25 67/93/25 21/94/26
f 21/94/26 67/93/25 68/95/26
f 21/94/26 68/95/26 20/96/27
f 20/96/27 68/95/26 69/97/27
f 20/96/27 69/97/27 19/98/28
f 19/98/28 69/97/27 70/99/28
f 19/98/28 70/99/28 18/100/29
f 18/100/29 70/99/28 71/101/29
f 18/100/29 71/101/29 17/102/30
f 17/102/30 71/101/29 72/103/30
f 17/102/30 72/103/30 16/104/31
f 16/104/31 72/103/30 73/105/31
f 16/104/31 73/105/31 14/106/32
f 14/106/32 73/105/31 74/107/32
f 14/106/32 74/107/32 13/108/33
f 13/108/33 74/107/32 75/109/33
f 13/108/33 75/109/33 12/110/34
f 12/110/34 75/109/33 76/111/34
f 12/110/34 76/111/34 11/112/35
f 11/112/35 76/111/34 77/113/35
f 11/112/35 77/113/35 10/114/36
f 10/114/36 77/113/35 78/115/36
f 10/114/36 78/115/36 9/116/37
f 9/116/37 78/115/36 79/117/37
f 9/116/37 79/117/37 8/118/38
f 8/118/38 79/117/37 80/119/38
f 8/118/38 80/119/38 7/120/39
f 7/120/39 80/119/38 81/121/39
f 7/120/39 81/121/39 6/122/40
f 6/122/40 81/121/39 82/123/40
f 6/122/40 82/123/40 5/44/2
f 5/44/2 82/123/40 44/45/2
f 2/124/3 83/125/3 4/126/3
f 4/126/3 83/125/3 84/127/3
f 84/127/3 83/125/3 85/128/3
f 85/128/3 83/125/3 86/129/3
f 86/129/3 83/125/3 87/130/3
f 87/130/3 83/125/3 88/131/3
f 88/131/3 83/125/3 89/132/3
f 89/132/3 83/125/3 90/133/3
f 90/133/3 83/125/3 91/134/3
f 91/134/3 83/125/3 92/135/3
f 92/135/3 83/125/3 93/136/3
f 93/136/3 83/125/3 94/137/3
f 94/137/3 83/125/3 95/138/3
f 95/138/3 83/125/3 96/139/3
f 96/139/3 83/125/3 97/140/3
f 97/140/3 83/125/3 98/141/3
f 26/142/41 99/143/41 2/144/41
f 2/144/41 99/143/41 83/145/41
f 26/146/42 15/147/42 99/148/42
f 99/148/42 15/147/42 100/149/42
f 99/148/42 100/149/42 101/150/42
f 101/150/42 102/151/42 99/148/42
f 99/148/42 102/151/42 103/152/42
f 99/148/42 103/152/42 104/153/42
f 104/153/42 105/154/42 99/148/42
f 99/148/42 105/154/42 106/155/42
f 99/148/42 106/155/42 107/156/42
f 107/156/42 108/157/42 99/148/42
f 99/148/42 108/157/42 109/158/42
f 99/148/42 109/158/42 110/159/42
f 110/159/42 111/160/42 99/148/42
f 99/148/42 111/160/42 112/161/42
f 99/148/42 112/161/42 113/162/42
f 113/162/42 114/163/42 99/148/42
f 45/164/43 44/165/43 46/166/43
f 46/166/43 44/165/43 47/167/43
f 47/167/43 44/165/43 82/168/43
f 47/167/43 82/168/43 48/169/43
f 48/169/43 82/168/43 81/170/43
f 48/169/43 81/170/43 49/171/43
f 49/171/43 81/170/43 80/172/43
f 49/171/43 80/172/43 50/173/43
f 50/173/43 80/172/43 79/174/43
f 50/173/43 79/174/43 51/175/43
f 51/175/43 79/174/43 78/176/43
f 51/175/43 78/176/43 52/177/43
f 52/177/43 78/176/43 77/178/43
f 52/177/43 77/178/43 53/179/43
f 53/179/43 77/178/43 76/180/43
f 53/179/43 76/180/43 54/181/43
f 54/181/43 76/180/43 75/182/43
f 54/181/43 75/182/43 55/183/43
f 55/183/43 75/182/43 74/184/43
f 55/183/43 74/184/43 56/185/43
f 56/185/43 74/184/43 73/186/43
f 56/185/43 73/186/43 57/187/43
f 57/187/43 73/186/43 72/188/43
f 57/187/43 72/188/43 58/189/43
f 58/189/43 72/188/43 71/190/43
f 58/189/43 71/190/43 59/191/43
f 59/191/43 71/190/43 70/192/43
f 59/191/43 70/192/43 60/193/43
f 60/193/43 70/192/43 69/194/43
f 60/193/43 69/194/43 61/195/43
f 61/195/43 69/194/43 68/196/43
f 61/195/43 68/196/43 62/197/43
f 62/197/43 68/196/43 67/198/43
f 62/197/43 67/198/43 63/199/43
f 63/199/43 67/198/43 66/200/43
f 63/199/43 66/200/43 64/201/43
f 64/201/43 66/200/43 65/202/43
f 4/203/44 84/204/44 15/205/44
f 15/205/44 84/204/44 100/206/44
f 84/207/44 85/208/45 100/209/44
f 100/209/44 85/208/45 101/210/45
f 101/210/45 85/208/45 86/211/46
f 101/210/45 86/211/46 102/212/46
f 102/212/46 86/211/46 87/213/47
f 102/212/46 87/213/47 103/214/47
f 103/214/47 87/213/47 88/215/48
f 103/214/47 88/215/48 104/216/48
f 104/216/48 88/215/48 89/217/49
f 104/216/48 89/217/49 105/218/49
f 105/218/49 89/217/49 90/219/50
f 105/218/49 90/219/50 106/220/50
f 106/220/50 90/219/50 91/221/51
f 106/220/50 91/221/51 107/222/51
f 107/222/51 91/221/51 92/223/52
f 107/222/51 92/223/52 108/224/52
f 108/225/52 92/226/52 93/227/53
f 108/225/52 93/227/53 109/228/53
f 109/228/53 93/227/53 94/229/54
f 109/228/53 94/229/54 110/230/54
f 110/230/54 94/229/54 95/231/55
f 110/230/54 95/231/55 111/232/55
f 111/232/55 95/231/55 96/233/56
f 111/232/55 96/233/56 112/234/56
f 112/234/56 96/233/56 97/235/57
f 112/234/56 97/235/57 113/236/57
f 113/236/57 97/235/57 98/237/58
f 113/236/57 98/237/58 114/238/58
f 114/238/58 98/237/58 83/239/41
f 114/238/58 83/239/41 99/240/41
